<svg width="348" height="150" viewBox="0 0 348 150" fill="none" xmlns="http://www.w3.org/2000/svg">
<path d="M104.26 73.9339C104.593 74.1785 104.879 73.6892 104.975 73.3631C105.07 73.0369 115.46 34.628 115.651 33.9756C115.841 33.3232 116.031 33.2404 116.27 33.9756C116.509 34.7108 127.089 73.6892 127.089 73.6892C127.089 73.6892 135.287 73.7708 135.954 73.6892C136.621 73.6077 136.809 73.264 137.05 72.6291L149.823 42.6196C149.823 42.6196 162.215 13.5072 162.501 12.8548C162.787 12.2024 163.073 12.2839 163.311 12.8548C163.55 13.4256 189.62 73.6892 189.62 73.6892H219.599C219.953 73.6788 220.075 73.5262 220.266 73.0369C220.456 72.5476 230.418 33.4047 230.608 32.8339C230.799 32.2631 230.899 32.425 231.085 32.8339L242.237 73.2815C242.375 73.7005 242.49 73.8055 242.762 73.7708C242.958 73.6062 243 73.5262 243 73.2C243 72.8738 230.608 27.8595 230.608 27.8595L228.178 28.3488L205.968 37.5637C205.487 37.8092 205.072 37.9328 204.109 38.1345C203.483 38.2686 203.108 38.1345 202.441 37.5637C201.774 36.9928 163.311 7.22799 163.311 7.22799C163.017 6.9357 162.958 6.91253 162.835 7.22799C162.712 7.54346 148.632 40.0101 148.632 40.0101C148.408 40.3953 148.254 40.5608 147.774 40.4994C147.774 40.4994 144.962 39.2762 144.295 38.95C143.627 38.6238 143.532 38.5422 143.485 37.7268C143.437 36.9113 143.532 33.0786 143.532 33.0786C143.541 32.039 143.514 31.5411 143.103 31.6107H138.909C138.639 31.6442 138.527 31.7477 138.48 32.2631C138.514 32.4615 138.519 35.4239 138.48 35.9327C138.442 36.4416 138.315 36.5822 137.67 36.3405L126.327 31.6107C126.327 31.6107 117.128 27.9411 116.699 27.6964C116.27 27.4518 116.072 27.5732 115.841 28.3488L104.117 72.466C103.955 73.2476 103.926 73.6892 104.26 73.9339Z" fill="black"/>
<path d="M141.206 74C140.883 74 140.19 73.837 140.006 73.511C139.821 73.185 144.347 62.9161 144.347 62.9161L147.488 55.4997L152.8 42.6229C152.8 42.6229 158.567 28.5868 158.943 28.1975C159.32 27.8083 159.506 28.0499 160.006 28.442C161.56 29.6192 163.1 31.05 164.024 31.9465C164.948 32.843 165.5 33.6111 166.564 35.0435C166.564 35.0435 182.869 72.9405 182.962 73.185C183.054 73.4295 182.968 73.6395 182.823 73.674H175.987L159.313 33.7395C159.135 33.4462 159.128 33.2505 158.851 33.9025C158.574 34.5545 142.269 72.9405 142.269 72.9405C141.876 73.5599 141.53 74 141.206 74Z" fill="black"/>
<path d="M244.477 61.5558C244.24 61.1477 244.473 60.7271 244.761 61.2294C244.761 61.2294 246.418 64.331 247.554 67.7591C248.69 71.1871 249.567 73.6344 249.921 77.5536C249.941 77.6706 250.375 84.4048 248.974 87.0217C247.573 89.6385 246.323 91.5925 243.293 93.1433C240.264 94.6941 237.7 95.4116 234.583 95.8368L225.825 96L215.789 95.347L210.251 94.6941L196.664 92.5719L192.262 91.5925L189.422 90.8579L186.96 90.4498L185.445 90.2865L183.693 89.96L181.185 89.3887L175.314 88.1644L170.817 87.1033L167.456 86.5319L164.427 85.9606L160.308 85.1444L155.574 84.3282L153.681 84.0833L151.834 83.8384L149.467 83.4303L146.864 83.1038L144.97 82.7774L142.461 82.5325L139.621 82.1244L135.124 81.7163L129.774 81.3082H117.088L116.141 81.3898L110.839 82.3693L103.975 84.573C102.014 85.6109 100.812 86.3775 98.3413 88.3276C97.9456 88.6213 97.8679 88.5725 98.2466 88.0011C98.6254 87.4298 101.656 84.5807 103.643 83.0222L103.844 82.9341C105.835 82.0606 107.015 81.5424 109.04 80.6552C111.602 79.6627 112.762 79.4405 115.052 78.7779C118.397 78.0017 119.167 78.1023 121.537 77.7985L127.644 77.472H137.443L143.645 77.7985L149.799 78.4514L155.101 79.0228L160.166 79.6758L165.042 80.492L172.427 81.553L179.244 82.6957L184.451 83.5936L188.38 84.0833C188.38 84.0833 192.546 84.573 195.86 85.226C199.173 85.879 200.234 86.2282 204.901 86.5319C208.651 86.6261 210.848 86.9115 214.843 87.1849C215.112 87.5041 226.472 87.3338 230.748 86.3687C235.025 85.4036 236.924 84.7612 239.885 83.0222C242.846 81.2833 245.187 77.472 245.613 74.2071C246.039 70.9423 245.897 69.5547 245.897 69.5547L245.329 64.5758C245.329 64.5758 244.714 61.9639 244.477 61.5558Z" fill="black" stroke="black"/>
<path d="M114.001 62.6858V65.1496C114.005 65.7176 114.141 65.8497 114.562 65.8341H116.012C116.527 65.8341 116.557 65.5971 116.527 65.1496V62.6858C116.539 62.0584 116.423 61.9018 116.012 61.9329H114.422C114.055 61.9112 113.991 62.1194 114.001 62.6858Z" fill="black"/>
<path d="M117.649 65.2865V62.4804C117.656 62.0237 117.737 61.9025 118.023 61.9329H119.801C120.179 61.8832 120.287 62.0183 120.269 62.5489V65.1496C120.291 65.648 120.162 65.732 119.801 65.6972H118.117C117.727 65.7163 117.659 65.5966 117.649 65.2865Z" fill="black"/>
<path d="M114.001 70.488V68.2295C114.03 67.7052 114.001 67.4082 114.422 67.4082H115.965C116.453 67.4066 116.577 67.5784 116.62 68.0926V70.488C116.573 70.9501 116.463 71.113 116.012 71.104H114.562C114.185 71.0863 114.04 70.987 114.001 70.488Z" fill="black"/>
<path d="M117.649 70.488V68.0241C117.657 67.5836 117.729 67.4359 118.023 67.4082H119.894C120.315 67.4082 120.403 67.6383 120.409 68.2295V70.2827L120.409 70.2832C120.39 70.8306 120.379 71.1377 119.894 71.104H118.023C117.746 71.1165 117.649 71.0355 117.649 70.488Z" fill="black"/>
<path d="M154.974 63.2333V65.355C154.974 65.834 155.219 65.9017 155.535 65.9025H157.78C158.039 65.8038 158.108 65.6971 158.108 65.2181V62.8911C157.921 62.3249 157.78 61.9329 157.313 61.3854C156.845 60.8379 156.143 60.9063 155.769 61.3854C155.395 61.8645 155.246 62.1727 154.974 63.2333Z" fill="black"/>
<path d="M159.792 65.355C159.792 64.8759 159.698 63.3018 159.792 62.6173C159.885 61.9329 160.379 61.3349 160.774 61.1116C160.774 61.1116 161.288 60.9748 161.85 61.1116C162.411 61.2485 162.753 62.0021 162.832 62.8911V65.2181C162.832 65.834 162.732 65.9741 162.317 65.9025L160.259 65.834C159.939 65.8526 159.792 65.834 159.792 65.355Z" fill="black"/>
<path d="M154.974 71.5831V68.4348C154.995 67.8636 155.081 67.6707 155.442 67.6819H157.78C158.111 67.6949 158.232 67.8103 158.201 68.4348V71.3778C158.188 71.83 158.07 71.909 157.78 71.9253H155.348C155.12 71.9728 155.013 71.9558 154.974 71.5831Z" fill="black"/>
<path d="M159.792 71.3778V68.4348C159.815 67.8192 159.945 67.7102 160.259 67.6819H162.317C162.766 67.6693 162.857 67.8602 162.832 68.4348V71.3778C162.771 71.912 162.617 72.031 162.177 71.9937H160.213C159.945 72.0273 159.836 71.9361 159.792 71.3778Z" fill="black"/>
<path d="M226.583 65.218V62.2751C226.583 61.9329 226.714 61.8629 226.957 61.9329H228.875C229.286 61.9106 229.389 62.0378 229.39 62.5488V65.218C229.367 65.6477 229.347 65.8766 229.015 65.834H226.957C226.705 65.8851 226.583 65.7656 226.583 65.218Z" fill="black"/>
<path d="M230.325 65.218V62.2751C230.338 61.8597 230.325 61.9329 230.793 61.9329H232.477C232.928 61.8723 233.035 62.0168 232.991 62.5488V65.218C233.009 65.7969 232.874 65.8985 232.477 65.834H230.793C230.392 65.8396 230.303 65.6881 230.325 65.218Z" fill="black"/>
<path d="M226.583 70.488V68.161C226.592 67.6852 226.66 67.502 226.957 67.4081H228.875C229.264 67.4065 229.355 67.6051 229.39 68.161V70.488C229.301 71.0054 229.156 71.1004 228.782 71.0355H227.051C226.719 71.1055 226.583 71.0355 226.583 70.488Z" fill="black"/>
<path d="M230.699 67.4081L230.325 68.0241V70.488L230.793 71.0355H232.664L232.944 70.488V68.2294L232.57 67.4081H230.699Z" fill="black"/>
<path d="M114.001 62.6858V65.1496C114.005 65.7176 114.141 65.8497 114.562 65.8341H116.012C116.527 65.8341 116.557 65.5971 116.527 65.1496V62.6858C116.539 62.0584 116.423 61.9018 116.012 61.9329H114.422C114.055 61.9112 113.991 62.1194 114.001 62.6858Z" stroke="black"/>
<path d="M117.649 65.2865V62.4804C117.656 62.0237 117.737 61.9025 118.023 61.9329H119.801C120.179 61.8832 120.287 62.0183 120.269 62.5489V65.1496C120.291 65.648 120.162 65.732 119.801 65.6972H118.117C117.727 65.7163 117.659 65.5966 117.649 65.2865Z" stroke="black"/>
<path d="M114.001 70.488V68.2295C114.03 67.7052 114.001 67.4082 114.422 67.4082H115.965C116.453 67.4066 116.577 67.5784 116.62 68.0926V70.488C116.573 70.9501 116.463 71.113 116.012 71.104H114.562C114.185 71.0863 114.04 70.987 114.001 70.488Z" stroke="black"/>
<path d="M117.649 70.488V68.0241C117.657 67.5836 117.729 67.4359 118.023 67.4082H119.894C120.315 67.4082 120.403 67.6383 120.409 68.2295V70.2827L120.409 70.2832C120.39 70.8306 120.379 71.1377 119.894 71.104H118.023C117.746 71.1165 117.649 71.0355 117.649 70.488Z" stroke="black"/>
<path d="M154.974 63.2333V65.355C154.974 65.834 155.219 65.9017 155.535 65.9025H157.78C158.039 65.8038 158.108 65.6971 158.108 65.2181V62.8911C157.921 62.3249 157.78 61.9329 157.313 61.3854C156.845 60.8379 156.143 60.9063 155.769 61.3854C155.395 61.8645 155.246 62.1727 154.974 63.2333Z" stroke="black"/>
<path d="M159.792 65.355C159.792 64.8759 159.698 63.3018 159.792 62.6173C159.885 61.9329 160.379 61.3349 160.774 61.1116C160.774 61.1116 161.288 60.9748 161.85 61.1116C162.411 61.2485 162.753 62.0021 162.832 62.8911V65.2181C162.832 65.834 162.732 65.9741 162.317 65.9025L160.259 65.834C159.939 65.8526 159.792 65.834 159.792 65.355Z" stroke="black"/>
<path d="M154.974 71.5831V68.4348C154.995 67.8636 155.081 67.6707 155.442 67.6819H157.78C158.111 67.6949 158.232 67.8103 158.201 68.4348V71.3778C158.188 71.83 158.07 71.909 157.78 71.9253H155.348C155.12 71.9728 155.013 71.9558 154.974 71.5831Z" stroke="black"/>
<path d="M159.792 71.3778V68.4348C159.815 67.8192 159.945 67.7102 160.259 67.6819H162.317C162.766 67.6693 162.857 67.8602 162.832 68.4348V71.3778C162.771 71.912 162.617 72.031 162.177 71.9937H160.213C159.945 72.0273 159.836 71.9361 159.792 71.3778Z" stroke="black"/>
<path d="M226.583 65.218V62.2751C226.583 61.9329 226.714 61.8629 226.957 61.9329H228.875C229.286 61.9106 229.389 62.0378 229.39 62.5488V65.218C229.367 65.6477 229.347 65.8766 229.015 65.834H226.957C226.705 65.8851 226.583 65.7656 226.583 65.218Z" stroke="black"/>
<path d="M230.325 65.218V62.2751C230.338 61.8597 230.325 61.9329 230.793 61.9329H232.477C232.928 61.8723 233.035 62.0168 232.991 62.5488V65.218C233.009 65.7969 232.874 65.8985 232.477 65.834H230.793C230.392 65.8396 230.303 65.6881 230.325 65.218Z" stroke="black"/>
<path d="M226.583 70.488V68.161C226.592 67.6852 226.66 67.502 226.957 67.4081H228.875C229.264 67.4065 229.355 67.6051 229.39 68.161V70.488C229.301 71.0054 229.156 71.1004 228.782 71.0355H227.051C226.719 71.1055 226.583 71.0355 226.583 70.488Z" stroke="black"/>
<path d="M230.699 67.4081L230.325 68.0241V70.488L230.793 71.0355H232.664L232.944 70.488V68.2294L232.57 67.4081H230.699Z" stroke="black"/>
<path d="M125.088 122V110.364H132.928V112.392H127.548V115.165H132.525V117.193H127.548V119.972H132.951V122H125.088ZM145.573 122C145.093 122 144.433 121.412 143.593 120.236C142.777 119.036 141.745 117.416 140.497 115.376L140.065 114.656C139.585 115.52 139.189 116.252 138.877 116.852C138.589 117.428 138.301 118.076 138.013 118.796C137.533 119.948 137.293 120.632 137.293 120.848C137.293 121.184 137.461 121.352 137.797 121.352C137.869 121.352 137.989 121.292 138.157 121.172C138.325 121.052 138.445 120.992 138.517 120.992C138.637 120.992 138.745 121.028 138.841 121.1C138.937 121.172 138.985 121.256 138.985 121.352C138.985 121.496 138.805 121.736 138.445 122.072C138.085 122.408 137.677 122.708 137.221 122.972C136.789 123.236 136.441 123.368 136.177 123.368C135.985 123.368 135.817 123.2 135.673 122.864C135.529 122.552 135.457 122.216 135.457 121.856C135.457 121.208 135.721 120.308 136.249 119.156C136.801 117.98 137.617 116.36 138.697 114.296L139.273 113.252C138.793 112.22 138.145 110.924 137.329 109.364C136.537 107.78 135.829 106.484 135.205 105.476C134.845 104.852 134.665 104.252 134.665 103.676C134.665 103.436 134.689 103.268 134.737 103.172C134.809 103.076 134.905 103.028 135.025 103.028C135.241 103.028 135.469 103.148 135.709 103.388C135.949 103.604 136.237 104 136.573 104.576C137.653 106.304 138.865 108.62 140.209 111.524C140.305 111.356 140.581 110.876 141.037 110.084C141.781 108.74 142.513 107.504 143.233 106.376C143.737 105.656 144.121 105.176 144.385 104.936C144.673 104.696 145.069 104.576 145.573 104.576C146.269 104.576 146.617 104.768 146.617 105.152C146.617 105.248 146.581 105.332 146.509 105.404C146.437 105.452 146.269 105.548 146.005 105.692C145.765 105.812 145.513 106.004 145.249 106.268C144.841 106.676 144.205 107.552 143.341 108.896C142.477 110.216 141.661 111.584 140.893 113C141.421 114.008 142.033 115.028 142.729 116.06C143.449 117.068 144.085 117.908 144.637 118.58C145.213 119.228 145.573 119.552 145.717 119.552C146.053 119.552 146.329 119.24 146.545 118.616C146.593 118.448 146.653 118.268 146.725 118.076C146.821 117.884 146.929 117.788 147.049 117.788C147.337 117.788 147.481 117.92 147.481 118.184C147.481 118.496 147.373 118.964 147.157 119.588C146.941 120.212 146.689 120.776 146.401 121.28C146.113 121.76 145.837 122 145.573 122ZM153.438 113.273V115.091H148.182V113.273H153.438ZM149.376 111.182H151.796V119.318C151.796 119.542 151.83 119.716 151.898 119.841C151.966 119.962 152.061 120.047 152.182 120.097C152.307 120.146 152.451 120.17 152.614 120.17C152.728 120.17 152.841 120.161 152.955 120.142C153.069 120.119 153.156 120.102 153.216 120.091L153.597 121.892C153.476 121.93 153.305 121.973 153.086 122.023C152.866 122.076 152.599 122.108 152.285 122.119C151.701 122.142 151.19 122.064 150.751 121.886C150.315 121.708 149.976 121.432 149.733 121.057C149.491 120.682 149.372 120.208 149.376 119.636V111.182ZM155.015 122V113.273H157.361V114.795H157.452C157.611 114.254 157.878 113.845 158.253 113.568C158.628 113.288 159.06 113.148 159.549 113.148C159.67 113.148 159.801 113.155 159.941 113.17C160.081 113.186 160.204 113.206 160.31 113.233V115.381C160.197 115.347 160.039 115.316 159.839 115.29C159.638 115.263 159.454 115.25 159.287 115.25C158.931 115.25 158.613 115.328 158.333 115.483C158.056 115.634 157.837 115.847 157.674 116.119C157.515 116.392 157.435 116.706 157.435 117.062V122H155.015ZM165.133 122.17C164.235 122.17 163.462 121.989 162.814 121.625C162.171 121.258 161.674 120.739 161.326 120.068C160.977 119.394 160.803 118.597 160.803 117.676C160.803 116.778 160.977 115.991 161.326 115.312C161.674 114.634 162.165 114.106 162.797 113.727C163.434 113.348 164.18 113.159 165.036 113.159C165.612 113.159 166.148 113.252 166.644 113.438C167.144 113.619 167.58 113.894 167.951 114.261C168.326 114.629 168.617 115.091 168.826 115.648C169.034 116.201 169.138 116.848 169.138 117.591V118.256H161.769V116.756H166.86C166.86 116.407 166.784 116.098 166.633 115.83C166.481 115.561 166.271 115.35 166.002 115.199C165.737 115.044 165.428 114.966 165.076 114.966C164.708 114.966 164.383 115.051 164.099 115.222C163.818 115.388 163.599 115.614 163.439 115.898C163.28 116.178 163.199 116.491 163.195 116.835V118.261C163.195 118.693 163.275 119.066 163.434 119.381C163.597 119.695 163.826 119.938 164.121 120.108C164.417 120.278 164.767 120.364 165.172 120.364C165.441 120.364 165.688 120.326 165.911 120.25C166.135 120.174 166.326 120.061 166.485 119.909C166.644 119.758 166.765 119.572 166.849 119.352L169.087 119.5C168.974 120.038 168.741 120.508 168.388 120.909C168.04 121.307 167.589 121.617 167.036 121.841C166.487 122.061 165.852 122.17 165.133 122.17ZM170.718 122V113.273H173.025V114.812H173.127C173.309 114.301 173.612 113.898 174.036 113.602C174.46 113.307 174.968 113.159 175.559 113.159C176.157 113.159 176.667 113.309 177.087 113.608C177.508 113.903 177.788 114.305 177.928 114.812H178.019C178.197 114.312 178.519 113.913 178.985 113.614C179.455 113.311 180.01 113.159 180.65 113.159C181.464 113.159 182.125 113.419 182.633 113.938C183.144 114.453 183.4 115.184 183.4 116.131V122H180.985V116.608C180.985 116.123 180.856 115.759 180.599 115.517C180.341 115.275 180.019 115.153 179.633 115.153C179.193 115.153 178.85 115.294 178.604 115.574C178.358 115.85 178.235 116.216 178.235 116.67V122H175.888V116.557C175.888 116.129 175.765 115.788 175.519 115.534C175.277 115.28 174.956 115.153 174.559 115.153C174.29 115.153 174.047 115.222 173.831 115.358C173.619 115.491 173.451 115.678 173.326 115.92C173.201 116.159 173.138 116.439 173.138 116.761V122H170.718ZM189.289 122.17C188.391 122.17 187.618 121.989 186.971 121.625C186.327 121.258 185.831 120.739 185.482 120.068C185.134 119.394 184.959 118.597 184.959 117.676C184.959 116.778 185.134 115.991 185.482 115.312C185.831 114.634 186.321 114.106 186.954 113.727C187.59 113.348 188.336 113.159 189.192 113.159C189.768 113.159 190.304 113.252 190.8 113.438C191.3 113.619 191.736 113.894 192.107 114.261C192.482 114.629 192.774 115.091 192.982 115.648C193.19 116.201 193.295 116.848 193.295 117.591V118.256H185.925V116.756H191.016C191.016 116.407 190.94 116.098 190.789 115.83C190.637 115.561 190.427 115.35 190.158 115.199C189.893 115.044 189.584 114.966 189.232 114.966C188.865 114.966 188.539 115.051 188.255 115.222C187.974 115.388 187.755 115.614 187.596 115.898C187.437 116.178 187.355 116.491 187.351 116.835V118.261C187.351 118.693 187.431 119.066 187.59 119.381C187.753 119.695 187.982 119.938 188.278 120.108C188.573 120.278 188.923 120.364 189.329 120.364C189.598 120.364 189.844 120.326 190.067 120.25C190.291 120.174 190.482 120.061 190.641 119.909C190.8 119.758 190.921 119.572 191.005 119.352L193.243 119.5C193.13 120.038 192.897 120.508 192.545 120.909C192.196 121.307 191.745 121.617 191.192 121.841C190.643 122.061 190.009 122.17 189.289 122.17ZM198.623 122V110.364H203.214C204.096 110.364 204.848 110.532 205.469 110.869C206.09 111.203 206.564 111.667 206.89 112.261C207.219 112.852 207.384 113.534 207.384 114.307C207.384 115.08 207.217 115.761 206.884 116.352C206.551 116.943 206.068 117.403 205.435 117.733C204.806 118.062 204.045 118.227 203.151 118.227H200.225V116.256H202.753C203.227 116.256 203.617 116.174 203.924 116.011C204.234 115.845 204.465 115.616 204.617 115.324C204.772 115.028 204.85 114.689 204.85 114.307C204.85 113.92 204.772 113.583 204.617 113.295C204.465 113.004 204.234 112.778 203.924 112.619C203.613 112.456 203.219 112.375 202.742 112.375H201.083V122H198.623ZM208.937 122V113.273H211.283V114.795H211.374C211.533 114.254 211.8 113.845 212.175 113.568C212.55 113.288 212.982 113.148 213.471 113.148C213.592 113.148 213.723 113.155 213.863 113.17C214.003 113.186 214.126 113.206 214.232 113.233V115.381C214.118 115.347 213.961 115.316 213.76 115.29C213.56 115.263 213.376 115.25 213.209 115.25C212.853 115.25 212.535 115.328 212.255 115.483C211.978 115.634 211.759 115.847 211.596 116.119C211.437 116.392 211.357 116.706 211.357 117.062V122H208.937ZM219.02 122.17C218.138 122.17 217.375 121.983 216.731 121.608C216.09 121.229 215.596 120.703 215.248 120.028C214.899 119.35 214.725 118.564 214.725 117.67C214.725 116.769 214.899 115.981 215.248 115.307C215.596 114.629 216.09 114.102 216.731 113.727C217.375 113.348 218.138 113.159 219.02 113.159C219.903 113.159 220.664 113.348 221.305 113.727C221.948 114.102 222.445 114.629 222.793 115.307C223.142 115.981 223.316 116.769 223.316 117.67C223.316 118.564 223.142 119.35 222.793 120.028C222.445 120.703 221.948 121.229 221.305 121.608C220.664 121.983 219.903 122.17 219.02 122.17ZM219.032 120.295C219.433 120.295 219.769 120.182 220.037 119.955C220.306 119.723 220.509 119.409 220.645 119.011C220.786 118.614 220.856 118.161 220.856 117.653C220.856 117.146 220.786 116.693 220.645 116.295C220.509 115.898 220.306 115.583 220.037 115.352C219.769 115.121 219.433 115.006 219.032 115.006C218.626 115.006 218.286 115.121 218.009 115.352C217.736 115.583 217.53 115.898 217.39 116.295C217.253 116.693 217.185 117.146 217.185 117.653C217.185 118.161 217.253 118.614 217.39 119.011C217.53 119.409 217.736 119.723 218.009 119.955C218.286 120.182 218.626 120.295 219.032 120.295ZM133.293 132.71C133.247 132.252 133.052 131.896 132.707 131.642C132.363 131.388 131.895 131.261 131.304 131.261C130.902 131.261 130.563 131.318 130.287 131.432C130.01 131.542 129.798 131.695 129.651 131.892C129.507 132.089 129.435 132.312 129.435 132.562C129.427 132.771 129.471 132.953 129.565 133.108C129.664 133.263 129.798 133.398 129.969 133.511C130.139 133.621 130.336 133.718 130.56 133.801C130.783 133.881 131.022 133.949 131.276 134.006L132.321 134.256C132.829 134.369 133.295 134.521 133.719 134.71C134.143 134.9 134.51 135.133 134.821 135.409C135.132 135.686 135.372 136.011 135.543 136.386C135.717 136.761 135.806 137.191 135.81 137.676C135.806 138.388 135.624 139.006 135.264 139.528C134.908 140.047 134.393 140.451 133.719 140.739C133.048 141.023 132.24 141.165 131.293 141.165C130.353 141.165 129.535 141.021 128.838 140.733C128.145 140.445 127.603 140.019 127.213 139.455C126.827 138.886 126.624 138.184 126.605 137.347H128.986C129.012 137.737 129.124 138.062 129.321 138.324C129.522 138.581 129.789 138.777 130.122 138.909C130.459 139.038 130.84 139.102 131.264 139.102C131.681 139.102 132.043 139.042 132.349 138.92C132.66 138.799 132.901 138.631 133.071 138.415C133.241 138.199 133.327 137.951 133.327 137.67C133.327 137.409 133.249 137.189 133.094 137.011C132.942 136.833 132.719 136.682 132.423 136.557C132.132 136.432 131.774 136.318 131.349 136.216L130.082 135.898C129.101 135.659 128.327 135.286 127.759 134.778C127.19 134.271 126.908 133.587 126.912 132.727C126.908 132.023 127.096 131.407 127.474 130.881C127.857 130.354 128.382 129.943 129.048 129.648C129.715 129.352 130.473 129.205 131.321 129.205C132.185 129.205 132.938 129.352 133.582 129.648C134.23 129.943 134.734 130.354 135.094 130.881C135.454 131.407 135.639 132.017 135.651 132.71H133.293ZM141.396 141.17C140.499 141.17 139.726 140.989 139.078 140.625C138.434 140.258 137.938 139.739 137.589 139.068C137.241 138.394 137.067 137.597 137.067 136.676C137.067 135.778 137.241 134.991 137.589 134.312C137.938 133.634 138.429 133.106 139.061 132.727C139.697 132.348 140.444 132.159 141.3 132.159C141.875 132.159 142.411 132.252 142.908 132.438C143.408 132.619 143.843 132.894 144.214 133.261C144.589 133.629 144.881 134.091 145.089 134.648C145.298 135.201 145.402 135.848 145.402 136.591V137.256H138.033V135.756H143.124C143.124 135.407 143.048 135.098 142.896 134.83C142.745 134.561 142.535 134.35 142.266 134.199C142 134.044 141.692 133.966 141.339 133.966C140.972 133.966 140.646 134.051 140.362 134.222C140.082 134.388 139.862 134.614 139.703 134.898C139.544 135.178 139.463 135.491 139.459 135.835V137.261C139.459 137.693 139.538 138.066 139.697 138.381C139.86 138.695 140.089 138.938 140.385 139.108C140.68 139.278 141.031 139.364 141.436 139.364C141.705 139.364 141.951 139.326 142.175 139.25C142.398 139.174 142.589 139.061 142.749 138.909C142.908 138.758 143.029 138.572 143.112 138.352L145.351 138.5C145.237 139.038 145.004 139.508 144.652 139.909C144.304 140.307 143.853 140.617 143.3 140.841C142.75 141.061 142.116 141.17 141.396 141.17ZM146.982 141V132.273H149.328V133.795H149.419C149.578 133.254 149.845 132.845 150.22 132.568C150.595 132.288 151.027 132.148 151.516 132.148C151.637 132.148 151.768 132.155 151.908 132.17C152.048 132.186 152.171 132.206 152.277 132.233V134.381C152.163 134.347 152.006 134.316 151.805 134.29C151.605 134.263 151.421 134.25 151.254 134.25C150.898 134.25 150.58 134.328 150.3 134.483C150.023 134.634 149.804 134.847 149.641 135.119C149.482 135.392 149.402 135.706 149.402 136.062V141H146.982ZM161.93 132.273L158.879 141H156.152L153.101 132.273H155.658L157.47 138.517H157.561L159.368 132.273H161.93ZM163.169 141V132.273H165.589V141H163.169ZM164.385 131.148C164.025 131.148 163.716 131.028 163.459 130.79C163.205 130.547 163.078 130.258 163.078 129.92C163.078 129.587 163.205 129.301 163.459 129.062C163.716 128.82 164.025 128.699 164.385 128.699C164.745 128.699 165.052 128.82 165.305 129.062C165.563 129.301 165.692 129.587 165.692 129.92C165.692 130.258 165.563 130.547 165.305 130.79C165.052 131.028 164.745 131.148 164.385 131.148ZM171.472 141.17C170.578 141.17 169.809 140.981 169.165 140.602C168.525 140.22 168.032 139.689 167.688 139.011C167.347 138.333 167.176 137.553 167.176 136.67C167.176 135.777 167.348 134.992 167.693 134.318C168.042 133.64 168.536 133.112 169.176 132.733C169.816 132.35 170.578 132.159 171.46 132.159C172.222 132.159 172.888 132.297 173.46 132.574C174.032 132.85 174.485 133.239 174.818 133.739C175.152 134.239 175.335 134.826 175.369 135.5H173.085C173.021 135.064 172.85 134.714 172.574 134.449C172.301 134.18 171.943 134.045 171.5 134.045C171.125 134.045 170.797 134.148 170.517 134.352C170.241 134.553 170.025 134.847 169.869 135.233C169.714 135.619 169.636 136.087 169.636 136.636C169.636 137.193 169.712 137.667 169.864 138.057C170.019 138.447 170.237 138.744 170.517 138.949C170.797 139.153 171.125 139.256 171.5 139.256C171.777 139.256 172.025 139.199 172.244 139.085C172.468 138.972 172.652 138.807 172.795 138.591C172.943 138.371 173.04 138.108 173.085 137.801H175.369C175.331 138.468 175.15 139.055 174.824 139.562C174.502 140.066 174.057 140.46 173.489 140.744C172.92 141.028 172.248 141.17 171.472 141.17ZM180.896 141.17C179.999 141.17 179.226 140.989 178.578 140.625C177.934 140.258 177.438 139.739 177.089 139.068C176.741 138.394 176.567 137.597 176.567 136.676C176.567 135.778 176.741 134.991 177.089 134.312C177.438 133.634 177.929 133.106 178.561 132.727C179.197 132.348 179.944 132.159 180.8 132.159C181.375 132.159 181.911 132.252 182.408 132.438C182.908 132.619 183.343 132.894 183.714 133.261C184.089 133.629 184.381 134.091 184.589 134.648C184.798 135.201 184.902 135.848 184.902 136.591V137.256H177.533V135.756H182.624C182.624 135.407 182.548 135.098 182.396 134.83C182.245 134.561 182.035 134.35 181.766 134.199C181.5 134.044 181.192 133.966 180.839 133.966C180.472 133.966 180.146 134.051 179.862 134.222C179.582 134.388 179.362 134.614 179.203 134.898C179.044 135.178 178.963 135.491 178.959 135.835V137.261C178.959 137.693 179.038 138.066 179.197 138.381C179.36 138.695 179.589 138.938 179.885 139.108C180.18 139.278 180.531 139.364 180.936 139.364C181.205 139.364 181.451 139.326 181.675 139.25C181.898 139.174 182.089 139.061 182.249 138.909C182.408 138.758 182.529 138.572 182.612 138.352L184.851 138.5C184.737 139.038 184.504 139.508 184.152 139.909C183.804 140.307 183.353 140.617 182.8 140.841C182.25 141.061 181.616 141.17 180.896 141.17ZM193.743 134.761L191.527 134.898C191.489 134.708 191.408 134.538 191.283 134.386C191.158 134.231 190.993 134.108 190.788 134.017C190.588 133.922 190.347 133.875 190.067 133.875C189.692 133.875 189.375 133.955 189.118 134.114C188.86 134.269 188.732 134.477 188.732 134.739C188.732 134.947 188.815 135.123 188.982 135.267C189.148 135.411 189.434 135.527 189.839 135.614L191.419 135.932C192.268 136.106 192.9 136.386 193.317 136.773C193.733 137.159 193.942 137.667 193.942 138.295C193.942 138.867 193.773 139.369 193.436 139.801C193.103 140.233 192.644 140.57 192.061 140.812C191.482 141.051 190.813 141.17 190.055 141.17C188.9 141.17 187.98 140.93 187.294 140.449C186.612 139.964 186.213 139.305 186.095 138.472L188.476 138.347C188.548 138.699 188.722 138.968 188.999 139.153C189.275 139.335 189.629 139.426 190.061 139.426C190.485 139.426 190.826 139.345 191.084 139.182C191.345 139.015 191.478 138.801 191.482 138.54C191.478 138.32 191.385 138.14 191.203 138C191.021 137.856 190.741 137.746 190.362 137.67L188.851 137.369C187.999 137.199 187.364 136.903 186.947 136.483C186.535 136.062 186.328 135.527 186.328 134.875C186.328 134.314 186.48 133.831 186.783 133.426C187.089 133.021 187.519 132.708 188.072 132.489C188.629 132.269 189.281 132.159 190.027 132.159C191.129 132.159 191.997 132.392 192.629 132.858C193.266 133.324 193.637 133.958 193.743 134.761ZM201.675 129.364V141H199.214V129.364H201.675ZM206.074 135.955V141H203.653V132.273H205.96V133.812H206.062C206.256 133.305 206.58 132.903 207.034 132.608C207.489 132.309 208.04 132.159 208.688 132.159C209.294 132.159 209.822 132.292 210.273 132.557C210.723 132.822 211.074 133.201 211.324 133.693C211.574 134.182 211.699 134.765 211.699 135.443V141H209.278V135.875C209.282 135.341 209.146 134.924 208.869 134.625C208.593 134.322 208.212 134.17 207.727 134.17C207.402 134.17 207.114 134.241 206.864 134.381C206.617 134.521 206.424 134.725 206.284 134.994C206.148 135.259 206.078 135.58 206.074 135.955ZM217.55 141.17C216.656 141.17 215.887 140.981 215.243 140.602C214.603 140.22 214.11 139.689 213.766 139.011C213.425 138.333 213.254 137.553 213.254 136.67C213.254 135.777 213.427 134.992 213.771 134.318C214.12 133.64 214.614 133.112 215.254 132.733C215.894 132.35 216.656 132.159 217.538 132.159C218.3 132.159 218.966 132.297 219.538 132.574C220.11 132.85 220.563 133.239 220.896 133.739C221.23 134.239 221.413 134.826 221.447 135.5H219.163C219.099 135.064 218.929 134.714 218.652 134.449C218.379 134.18 218.021 134.045 217.578 134.045C217.203 134.045 216.875 134.148 216.595 134.352C216.319 134.553 216.103 134.847 215.947 135.233C215.792 135.619 215.714 136.087 215.714 136.636C215.714 137.193 215.79 137.667 215.942 138.057C216.097 138.447 216.315 138.744 216.595 138.949C216.875 139.153 217.203 139.256 217.578 139.256C217.855 139.256 218.103 139.199 218.322 139.085C218.546 138.972 218.73 138.807 218.874 138.591C219.021 138.371 219.118 138.108 219.163 137.801H221.447C221.41 138.468 221.228 139.055 220.902 139.562C220.58 140.066 220.135 140.46 219.567 140.744C218.999 141.028 218.326 141.17 217.55 141.17Z" fill="black"/>
</svg>
